<mxfile host="app.diagrams.net" modified="2023-09-10T14:28:57.824Z" agent="Mozilla/5.0 (Windows NT 10.0; Win64; x64) AppleWebKit/537.36 (KHTML, like Gecko) Chrome/116.0.0.0 Safari/537.36" version="21.7.4" etag="ovNw56eaOwZ6lvGx1UCq" type="github">
  <diagram name="Page-1" id="zT5q-mU8u6lHE2eP-v-y">
    <mxGraphModel>
      <root>
        <mxCell id="0" />
        <mxCell id="1" parent="0" />
      </root>
    </mxGraphModel>
  </diagram>
</mxfile>
